<svg width="24" height="24" viewBox="0 0 256 256" fill="none" xmlns="http://www.w3.org/2000/svg">
    <path d="M117.378 0.31378C103.691 1.73009 93.4163 4.07767 82.2163 8.40421C71.1319 12.6919 60.2596 18.8034 50.1969 26.4088C45.5125 29.9399 43.739 31.5308 37.6474 37.6617C32.1727 43.1717 29.1269 46.7416 24.7317 52.7948C16.6739 63.8925 10.5437 75.7468 6.64972 87.7564C5.39671 91.6173 5.03044 93.538 5.35815 94.7021C5.62803 95.6916 6.51478 96.7975 7.40153 97.2049C8.03768 97.5153 8.17262 97.5153 9.09792 97.2437C10.2931 96.8945 11.5461 96.099 15.5365 93.1888L18.4666 91.0546L20.1052 86.9609C25.6763 72.9142 31.3052 63.4463 40.4619 52.7172C43.5077 49.128 48.9053 43.5791 52.0282 40.8047C58.5246 35.0619 67.9319 28.7952 76.6644 24.391C90.1392 17.6005 101.937 14.2441 117.571 12.6919C121.58 12.3039 135.479 12.3621 139.45 12.7889C149.07 13.8366 156.838 15.5052 165.089 18.2602C175.325 21.6942 182.824 25.4775 194.082 32.8889C199.73 36.6334 199.479 36.4976 201.234 36.4782C204.53 36.4394 207.267 34.0724 207.537 31.0264C207.807 27.9803 206.573 26.6222 198.728 21.3644C193.658 17.9692 189.956 15.7768 185.099 13.3128C174.033 7.66695 162.159 3.78665 149.474 1.69129C141.995 0.44959 137.869 0.139166 128.173 0.0227573C122.062 -0.0354472 120.385 0.00335575 117.378 0.31378Z"
          fill="white"/>
    <path d="M233.716 44.6656C225.542 47.2072 184.559 59.5465 167.402 64.6297C152.019 69.1891 140.722 72.6231 113.137 81.1598C90.5054 88.1443 36.0088 105.392 29.9172 107.488C23.8064 109.602 22.7461 110.262 22.5726 112.066C22.4762 113.036 22.5148 113.075 23.3244 113.871C23.8064 114.317 27.122 116.859 30.7269 119.536C34.3317 122.194 41.098 127.219 45.7631 130.692C56.9631 139.034 59.7198 141.052 60.8957 141.751C61.8595 142.313 61.8981 142.333 62.4957 142.003C62.8427 141.828 66.9294 139.5 71.5945 136.803C76.2596 134.107 83.0644 130.207 86.7271 128.131C90.3897 126.035 100.973 120.021 110.245 114.744C138.737 98.5242 163.855 84.4581 185.233 72.7784C228.241 49.2637 236.453 44.6074 235.932 44.1029C235.875 44.0447 234.891 44.297 233.716 44.6656Z"
          fill="white"/>
    <path d="M220.8 66.9191C219.431 67.8116 212.144 72.5844 204.607 77.5317C187.797 88.5712 158.226 107.953 139.643 120.118C132.009 125.124 117.995 134.223 108.51 140.354C99.026 146.485 89.9079 152.363 88.2693 153.43C84.7802 155.7 83.6621 156.515 83.6428 156.806C83.6428 157.233 89.426 162.569 103.865 175.529C121.869 191.651 129.388 198.422 131.932 200.789C135.132 203.797 136.79 204.903 137.985 204.903C139.123 204.903 139.778 204.398 141.243 202.419C142.477 200.77 161.291 169.592 179.508 139.034C188.53 123.882 206.014 94.7409 219.2 72.8754C222.67 67.0937 223.692 65.3088 223.46 65.3088C223.383 65.3088 222.188 66.046 220.8 66.9191Z"
          fill="white"/>
    <path d="M241.099 75.5916C239.634 76.581 237.86 78.9868 236.145 82.3239L235.316 83.9148L236.858 88.6294C241.292 102.152 243.104 111.465 243.682 123.766C244.357 138.142 242.082 153.236 237.263 166.526C232.385 179.972 225.638 191.748 216.597 202.671C213.764 206.086 207.055 212.896 203.72 215.748C184.424 232.22 160.424 241.862 134.342 243.609C120.019 244.579 101.995 241.862 88.2886 236.702C75.103 231.715 62.9776 224.615 52.4137 215.67C49.0595 212.838 41.5221 205.232 38.8426 201.992C31.5173 193.126 26.004 184.085 21.6859 173.899C16.8666 162.51 13.7244 150.171 12.6064 138.297C12.4521 136.512 12.2208 134.165 12.1244 133.078C12.028 131.972 11.816 130.789 11.6618 130.44C11.2762 129.508 10.1581 128.48 8.1726 127.238C5.5509 125.609 3.75813 124.813 2.71716 124.813C1.94607 124.813 1.77258 124.891 1.11715 125.589C0.018353 126.773 -0.0780328 127.432 0.0376303 132.244C0.346065 143.458 2.71716 156.826 6.37982 168.137C16.2883 198.636 36.7607 223.47 65.2523 239.554C82.3512 249.196 100.24 254.59 119.286 255.851C123.874 256.142 135.807 255.987 139.932 255.56C153.156 254.202 163.219 251.815 174.438 247.431C194.641 239.515 213.841 225.701 226.834 209.734C230.361 205.388 235.181 198.403 238.477 192.874C243.952 183.658 249.504 170.019 252.28 158.902C254.94 148.27 256 139.772 256 128.752C256 113.851 253.802 101.046 248.578 85.1953C245.995 77.4347 245.398 76.2512 243.547 75.3782C242.487 74.8931 242.12 74.9125 241.099 75.5916Z"
          fill="white"/>
    <path d="M176.597 86.1654C173.571 88.028 166.689 91.9859 158.053 96.8363C154.294 98.951 149.744 101.531 147.932 102.56C146.139 103.607 140.279 106.925 134.92 109.932C129.561 112.959 121.407 117.576 116.8 120.215C112.192 122.854 105.291 126.773 101.474 128.946C85.4741 138.026 69.8211 147.106 67.1223 148.89L66.1006 149.55V171.105C66.1006 182.979 66.197 193.921 66.2934 195.415C66.5054 198.733 66.7175 199.393 67.797 199.819C68.8765 200.266 69.9367 199.916 71.9801 198.442C72.5199 198.054 78.1874 194.309 84.6067 190.119C91.026 185.928 96.6164 182.203 97.0212 181.854L97.7923 181.213L97.3296 180.593C97.079 180.263 95.826 179.04 94.5537 177.876C93.2621 176.712 89.5995 173.395 86.3802 170.484C79.1127 163.888 74.8717 159.755 74.3319 158.746C74.0428 158.164 73.9271 157.582 73.9271 156.593C73.9078 155.429 73.985 155.08 74.4669 154.206C75.5078 152.325 76.4524 151.684 105.233 133.117C112.809 128.228 125.359 120.079 133.089 115.015C140.838 109.952 152.713 102.172 159.499 97.7481C166.284 93.3246 173.378 88.707 175.248 87.4847C178.159 85.5834 179.354 84.7103 179.026 84.7103C178.988 84.7103 177.889 85.37 176.597 86.1654Z"
          fill="white"/>
</svg>
